<?xml version="1.0" encoding="UTF-8" standalone="no"?>
<svg xmlns="http://www.w3.org/2000/svg" width="1024" height="1024" viewBox="0 0 1024 1024" version="1.1">
  <g fill="#FFFFFF" stroke="none">
    <path d="M 295.00,400.00 L 295.00,613.00 L 492.00,730.00 L 491.00,689.00 L 331.00,593.00 L 331.00,550.00 L 335.00,549.00 L 429.00,604.00 L 429.00,565.00 L 331.00,506.00 L 331.00,464.00 L 491.00,557.00 L 493.00,516.00 Z"/>
<path d="M 728.00,399.00 L 530.00,517.00 L 530.00,557.00 L 604.00,514.00 L 610.00,514.00 L 611.00,680.00 L 647.00,659.00 L 647.00,490.00 L 729.00,439.00 Z"/>
<path d="M 531.00,256.00 L 533.00,299.00 L 640.00,363.00 L 636.00,368.00 L 531.00,431.00 L 533.00,472.00 L 711.00,366.00 L 712.00,362.00 Z"/>
<path d="M 490.00,256.00 L 311.00,364.00 L 491.00,472.00 L 492.00,431.00 L 382.00,365.00 L 386.00,359.00 L 492.00,296.00 Z"/>
  </g>
</svg>
