<?xml version="1.0" encoding="UTF-8" standalone="no"?>
<!-- Created with Inkscape (http://www.inkscape.org/) -->

<svg
   width="326.42053mm"
   height="376.78528mm"
   viewBox="0 0 326.42053 376.78528"
   version="1.1"
   id="svg1"
   xmlns="http://www.w3.org/2000/svg"
   xmlns:svg="http://www.w3.org/2000/svg">
  <defs
     id="defs1" />
  <rect
     style="fill:#cccccc;fill-opacity:1;stroke:#000000;stroke-width:0.264583;stroke-dasharray:none"
     id="rect15"
     width="800.81531"
     height="598.93713"
     x="-37.359818"
     y="-104.25775" />
  <g
     id="layer1"
     transform="translate(-37.359808,-106.17129)">
    <path
       style="fill:#000000;fill-opacity:1;stroke:#000000;stroke-width:0"
       id="path1"
       d="M 221.49193,149.73429 14.343889,283.6846 -205.23451,171.26429 -217.66486,-75.106336 -10.516815,-209.05665 209.06158,-96.636337 Z"
       transform="matrix(0.76235725,0.0377571,-0.03948825,0.76276668,200.58475,266.02982)" />
    <path
       d="m 342.3316,250.96906 -10.93577,6.26473 -10.86755,6.22546 -11.02155,6.31331 -10.78126,6.17637 -11.10785,6.36292 -10.69495,6.12675 -11.19363,6.41202 -10.60917,6.07766 -11.27994,6.46162 -10.52338,6.02806 -0.0439,12.99662 -0.0408,12.13053 10.60813,-6.07715 11.19467,-6.41305 10.69392,-6.12572 11.10888,-6.36395 -0.0429,12.7031 -0.0419,12.42353 -0.0429,12.60543 -0.0424,12.52172 -0.0419,12.50776 -0.0429,12.61887 -0.0419,12.41113 -0.0429,12.7155 11.11973,-6.37015 10.68256,-6.11953 0.0434,-12.8142 0.0419,-12.31243 0.0429,-12.71705 0.0424,-12.4101 0.0424,-12.61938 0.0424,-12.50725 0.0424,-12.52223 0.0429,-12.6044 10.86601,-6.22443 10.9368,-6.26525 10.9523,-6.27403 10.8505,-6.21564 0.0429,-12.62197 z"
       style="fill:#ffffff;fill-opacity:1;stroke:#000000;stroke-width:0.265309"
       id="path10" />
    <path
       d="m 59.439307,251.91267 -0.03566,10.66291 -0.04909,14.36657 -0.03617,10.76007 -0.04806,14.26941 -0.03669,10.85773 -0.04806,14.17175 -0.03721,10.95437 -0.04754,14.07511 -0.03721,11.05204 -0.04754,13.97744 9.712586,5.564 12.005985,6.87762 9.882601,5.66115 11.835971,6.78046 10.05365,5.75883 11.66492,6.68228 10.22366,5.857 11.49491,6.58461 10.39368,5.95416 11.32489,6.48746 0.0439,-13.00024 0.0408,-12.02924 -11.40964,-6.53603 -10.30893,-5.90559 -11.57966,-6.63318 -10.13891,-5.80792 -11.75019,-6.73137 -9.96838,-5.71025 -11.920721,-6.82852 -9.797851,-5.61309 0.04703,-13.87926 0.03772,-11.15022 9.713619,5.56451 12.004943,6.8771 9.88364,5.66167 11.83494,6.77944 10.05365,5.75933 11.66492,6.68228 0.0455,-13.38988 0.0393,-11.6396 -11.74916,-6.73085 -9.96941,-5.71076 -11.91917,-6.82801 -9.79941,-5.61361 -12.09021,-6.92568 -9.628353,-5.51594 0.04754,-14.07356 0.03721,-10.9554 9.543603,5.46736 12.17496,6.97374 9.71414,5.56503 12.00443,6.87659 9.88467,5.6627 11.83391,6.77891 10.05468,5.75986 11.66389,6.68124 0.045,-13.38884 0.0393,-11.64064 -11.74812,-6.72982 -9.97045,-5.71128 -11.91865,-6.828 -9.79992,-5.61361 -12.08867,-6.92516 -9.6299,-5.51646 -12.2592,-7.02283 -9.459371,-5.41827 -12.429732,-7.1205 z"
       style="fill:#ffffff;fill-opacity:1;stroke:#000000;stroke-width:0.265309"
       id="path9" />
    <path
       d="m 233.81925,151.19682 -0.0352,11.45166 -0.0417,13.58209 9.11751,5.76333 10.5681,6.68022 9.27115,5.8605 10.41353,6.58249 9.42618,5.95868 10.25944,6.4848 9.58028,6.05584 -9.61775,6.07961 -10.2215,6.46155 -9.53999,6.02999 -10.29972,6.51065 -9.46178,5.98141 -10.37794,6.55975 -9.38402,5.9318 -0.0403,13.19237 -0.0365,11.93802 9.46084,-5.98038 10.30066,-6.51169 9.53859,-6.02947 10.2229,-6.46207 9.61681,-6.07858 10.14515,-6.41296 9.69457,-6.1282 10.06692,-6.36335 9.77232,-6.17729 9.98918,-6.31425 9.85054,-6.22691 -9.81261,-6.20262 -10.02664,-6.33802 -9.65851,-6.10546 -10.1812,-6.43571 -9.50394,-6.00729 -10.33578,-6.53343 -9.34937,-5.91011 -10.48987,-6.63109 -9.19528,-5.8124 -10.64444,-6.72876 z"
       style="fill:#ffffff;fill-opacity:1;stroke:#000000;stroke-width:0.252603"
       id="path8" />
    <rect
       style="fill:#ffffff;fill-opacity:1;stroke:#000000;stroke-width:0.259651;stroke-dasharray:none"
       id="rect10"
       width="15.5733"
       height="167.7896"
       x="232.56464"
       y="93.108643"
       transform="matrix(0.98110688,0.19346652,-0.19639407,0.98052505,0,0)" />
    <path
       d="m 168.5913,149.86115 -11.0004,7.04933 -8.49344,5.44295 -11.0771,7.09843 -8.41628,5.39334 -11.15424,7.14757 -8.33913,5.34426 -11.230947,7.19719 -8.262421,5.29463 -11.308569,7.24676 -8.185267,5.24499 -11.384802,7.29587 11.34091,7.26744 8.229622,5.27395 11.188441,7.16975 8.381626,5.3711 11.036437,7.0726 8.5341,5.46879 10.88396,6.9749 8.68656,5.56596 10.73151,6.87722 8.83857,5.66417 10.57949,6.77952 0.0411,-13.58542 0.0347,-11.44824 -10.65527,-6.82811 -8.7628,-5.61558 -10.80773,-6.92581 -8.61033,-5.51737 -10.9602,-7.02348 -8.45787,-5.42022 -11.112197,-7.12117 11.155167,-7.14804 8.41536,-5.39282 11.07847,-7.09947 8.49206,-5.44192 11.00132,-7.04988 8.56875,-5.49106 10.92463,-7.00078 0.0337,-11.05957 z"
       style="fill:#ffffff;fill-opacity:1;stroke:#000000;stroke-width:0.250886"
       id="path7" />
  </g>
  <g
     id="g15"
     transform="translate(357.73814,-106.17129)">
    <path
       style="fill:#ffffff;fill-opacity:1;stroke:#000000;stroke-width:0"
       id="path11"
       d="M 221.49193,149.73429 14.343889,283.6846 -205.23451,171.26429 -217.66486,-75.106336 -10.516815,-209.05665 209.06158,-96.636337 Z"
       transform="matrix(0.76235725,0.0377571,-0.03948825,0.76276668,200.58475,266.02982)" />
    <path
       d="m 342.3316,250.96906 -10.93577,6.26473 -10.86755,6.22546 -11.02155,6.31331 -10.78126,6.17637 -11.10785,6.36292 -10.69495,6.12675 -11.19363,6.41202 -10.60917,6.07766 -11.27994,6.46162 -10.52338,6.02806 -0.0439,12.99662 -0.0408,12.13053 10.60813,-6.07715 11.19467,-6.41305 10.69392,-6.12572 11.10888,-6.36395 -0.0429,12.7031 -0.0419,12.42353 -0.0429,12.60543 -0.0424,12.52172 -0.0419,12.50776 -0.0429,12.61887 -0.0419,12.41113 -0.0429,12.7155 11.11973,-6.37015 10.68256,-6.11953 0.0434,-12.8142 0.0419,-12.31243 0.0429,-12.71705 0.0424,-12.4101 0.0424,-12.61938 0.0424,-12.50725 0.0424,-12.52223 0.0429,-12.6044 10.86601,-6.22443 10.9368,-6.26525 10.9523,-6.27403 10.8505,-6.21564 0.0429,-12.62197 z"
       style="fill:#000000;fill-opacity:1;stroke:#000000;stroke-width:0.265309"
       id="path12" />
    <path
       d="m 59.439307,251.91267 -0.03566,10.66291 -0.04909,14.36657 -0.03617,10.76007 -0.04806,14.26941 -0.03669,10.85773 -0.04806,14.17175 -0.03721,10.95437 -0.04754,14.07511 -0.03721,11.05204 -0.04754,13.97744 9.712586,5.564 12.005985,6.87762 9.882601,5.66115 11.835971,6.78046 10.05365,5.75883 11.66492,6.68228 10.22366,5.857 11.49491,6.58461 10.39368,5.95416 11.32489,6.48746 0.0439,-13.00024 0.0408,-12.02924 -11.40964,-6.53603 -10.30893,-5.90559 -11.57966,-6.63318 -10.13891,-5.80792 -11.75019,-6.73137 -9.96838,-5.71025 -11.920721,-6.82852 -9.797851,-5.61309 0.04703,-13.87926 0.03772,-11.15022 9.713619,5.56451 12.004943,6.8771 9.88364,5.66167 11.83494,6.77944 10.05365,5.75933 11.66492,6.68228 0.0455,-13.38988 0.0393,-11.6396 -11.74916,-6.73085 -9.96941,-5.71076 -11.91917,-6.82801 -9.79941,-5.61361 -12.09021,-6.92568 -9.628353,-5.51594 0.04754,-14.07356 0.03721,-10.9554 9.543603,5.46736 12.17496,6.97374 9.71414,5.56503 12.00443,6.87659 9.88467,5.6627 11.83391,6.77891 10.05468,5.75986 11.66389,6.68124 0.045,-13.38884 0.0393,-11.64064 -11.74812,-6.72982 -9.97045,-5.71128 -11.91865,-6.828 -9.79992,-5.61361 -12.08867,-6.92516 -9.6299,-5.51646 -12.2592,-7.02283 -9.459371,-5.41827 -12.429732,-7.1205 z"
       style="fill:#000000;fill-opacity:1;stroke:#000000;stroke-width:0.265309"
       id="path13" />
    <path
       d="m 233.81925,151.19682 -0.0352,11.45166 -0.0417,13.58209 9.11751,5.76333 10.5681,6.68022 9.27115,5.8605 10.41353,6.58249 9.42618,5.95868 10.25944,6.4848 9.58028,6.05584 -9.61775,6.07961 -10.2215,6.46155 -9.53999,6.02999 -10.29972,6.51065 -9.46178,5.98141 -10.37794,6.55975 -9.38402,5.9318 -0.0403,13.19237 -0.0365,11.93802 9.46084,-5.98038 10.30066,-6.51169 9.53859,-6.02947 10.2229,-6.46207 9.61681,-6.07858 10.14515,-6.41296 9.69457,-6.1282 10.06692,-6.36335 9.77232,-6.17729 9.98918,-6.31425 9.85054,-6.22691 -9.81261,-6.20262 -10.02664,-6.33802 -9.65851,-6.10546 -10.1812,-6.43571 -9.50394,-6.00729 -10.33578,-6.53343 -9.34937,-5.91011 -10.48987,-6.63109 -9.19528,-5.8124 -10.64444,-6.72876 z"
       style="fill:#000000;fill-opacity:1;stroke:#000000;stroke-width:0.252603"
       id="path14" />
    <rect
       style="fill:#000000;fill-opacity:1;stroke:#000000;stroke-width:0.259651;stroke-dasharray:none"
       id="rect14"
       width="15.5733"
       height="167.7896"
       x="232.56464"
       y="93.108643"
       transform="matrix(0.98110688,0.19346652,-0.19639407,0.98052505,0,0)" />
    <path
       d="m 168.5913,149.86115 -11.0004,7.04933 -8.49344,5.44295 -11.0771,7.09843 -8.41628,5.39334 -11.15424,7.14757 -8.33913,5.34426 -11.230947,7.19719 -8.262421,5.29463 -11.308569,7.24676 -8.185267,5.24499 -11.384802,7.29587 11.34091,7.26744 8.229622,5.27395 11.188441,7.16975 8.381626,5.3711 11.036437,7.0726 8.5341,5.46879 10.88396,6.9749 8.68656,5.56596 10.73151,6.87722 8.83857,5.66417 10.57949,6.77952 0.0411,-13.58542 0.0347,-11.44824 -10.65527,-6.82811 -8.7628,-5.61558 -10.80773,-6.92581 -8.61033,-5.51737 -10.9602,-7.02348 -8.45787,-5.42022 -11.112197,-7.12117 11.155167,-7.14804 8.41536,-5.39282 11.07847,-7.09947 8.49206,-5.44192 11.00132,-7.04988 8.56875,-5.49106 10.92463,-7.00078 0.0337,-11.05957 z"
       style="fill:#000000;fill-opacity:1;stroke:#000000;stroke-width:0.250886"
       id="path15" />
  </g>
</svg>
